# xmcd CD database file
#
# Track frame offsets:
#	182
#	12928
#	26015
#	39447
#	53594
#	66614
#	79460
#	91398
#	104207
#	115561
#	127509
#	140410
#	152908
#	164447
#	175215
#	185687
#	199513
#	211184
#	222793
#
# Disc length: 3136 seconds
#
# Revision: 0
# Processed by: cddbd v1.5.1PL0 Copyright (c) Steve Scherf et al.
# Submitted via: CDex 1.51
#
DISCID=090c3e13
DTITLE=Lloyd Glenn - 1947-1950
DYEAR=1900
DGENRE=Blues
TTITLE0=Joymaker's Boogie (Soldier's Hop)
TTITLE1=Advice To A Fool
TTITLE2=That Other Woman's Gotta Go
TTITLE3=Rampart Street Jump (Fried Chicken Boogie) (Hep Cat Shuffle)
TTITLE4=Stranger
TTITLE5=Texas Man
TTITLE6=Midnight Boogie
TTITLE7=Boogiology (Rockin' Boogie) (Brazos Bottom)
TTITLE8=New Flying Home
TTITLE9=Jumpin' With Lloyd
TTITLE10=Levee Blues
TTITLE11=Travling Time
TTITLE12=Blues Hangover
TTITLE13=Chica Boo
TTITLE14=Jungle Town Jubilee
TTITLE15=Congo Rhumba
TTITLE16=Cute Tee
TTITLE17=Black Fantasy
TTITLE18=Old Time Shuffle
EXTD=
EXTT0=
EXTT1=
EXTT2=
EXTT3=
EXTT4=
EXTT5=
EXTT6=
EXTT7=
EXTT8=
EXTT9=
EXTT10=
EXTT11=
EXTT12=
EXTT13=
EXTT14=
EXTT15=
EXTT16=
EXTT17=
EXTT18=
PLAYORDER=
